<?xml version="1.0" standalone="no"?>
<!DOCTYPE svg PUBLIC "-//W3C//DTD SVG 1.1//EN" "http://www.w3.org/Graphics/SVG/1.1/DTD/svg11.dtd" >
<svg>
<metadata>
Created by FontForge 20090622 at Sun Aug 26 13:12:43 2018
 By deploy user
EeveSomepx
</metadata>
<defs>
<font id="HapticPro" horiz-adv-x="320" >
  <font-face 
    font-family="HapticPro"
    font-weight="500"
    font-stretch="normal"
    units-per-em="1024"
    panose-1="2 0 6 9 0 0 0 0 0 0"
    ascent="768"
    descent="-256"
    x-height="256"
    cap-height="384"
    bbox="0 -128 306 682"
    underline-thickness="51"
    underline-position="-103"
    unicode-range="U+0020-U+3000"
  />
<missing-glyph 
d="M34 0v682h272v-682h-272zM68 34h204v614h-204v-614z" />
    <glyph glyph-name=".notdef" 
d="M34 0v682h272v-682h-272zM68 34h204v614h-204v-614z" />
    <glyph glyph-name=".null" horiz-adv-x="0" 
 />
    <glyph glyph-name="nonmarkingreturn" 
 />
    <glyph glyph-name="space" unicode=" " 
 />
    <glyph glyph-name="exclam" unicode="!" 
d="M128 64h64v-64h-64h-64v64h64zM128 128h-64v64v64h64v64v64h64v-64v-64v-64v-64h-64z" />
    <glyph glyph-name="quotedbl" unicode="&#x22;" 
d="M128 320v64h-64v-64h-64v64v64h64h64h64h64v-64h-64v-64h-64z" />
    <glyph glyph-name="numbersign" unicode="#" 
d="M192 0v64h-64v-64h-64v64h-64v64h64v64h-64v64h64v64h64v-64h64v64h64v-64v-64v-64v-64v-64h-64zM192 128v64h-64v-64h64z" />
    <glyph glyph-name="dollar" unicode="$" 
d="M64 -64v64h-64v64h64h64h64v-64h-64v-64h-64zM192 64v64v64h64v-64v-64h-64zM192 192h-64h-64v64h64h64v-64zM64 256h-64v64h64v-64zM64 320v64v64h64v-64h64v-64h-64h-64z" />
    <glyph glyph-name="percent" unicode="%" 
d="M192 64v64h64v-64h-64zM64 64v64v64h64v-64v-64h-64zM0 256v64h64v-64h-64zM128 192v64v64h64v-64v-64h-64z" />
    <glyph glyph-name="ampersand" unicode="&#x26;" 
d="M192 0v64h64v-64h-64zM64 0v64h64v-64h-64zM192 64h-64v64h64v-64zM64 64h-64v64h64v-64zM192 128v64h64v-64h-64zM128 128h-64v64h64v-64zM64 192h-64v64h64v-64zM128 320h64v-64h-64h-64v64h64z" />
    <glyph glyph-name="quotesingle" unicode="'" 
d="M64 256v64v64h64h64v-64h-64v-64h-64z" />
    <glyph glyph-name="parenleft" unicode="(" 
d="M128 -64v64h64v-64h-64zM128 0h-64v64v64v64v64v64v64h64v-64v-64v-64v-64v-64v-64zM128 384v64h64v-64h-64z" />
    <glyph glyph-name="parenright" unicode=")" 
d="M64 -64v64h64v-64h-64zM128 0v64v64v64v64v64v64h64v-64v-64v-64v-64v-64v-64h-64zM128 384h-64v64h64v-64z" />
    <glyph glyph-name="asterisk" unicode="*" 
d="M0 64v64h64v-64h-64zM192 64h-64v64h-64v64h-64v64h64h64v-64h64v-64h64v-64h-64zM192 192v64h64v-64h-64z" />
    <glyph glyph-name="plus" unicode="+" 
d="M128 64h-64v64h-64v64h64v64h64h64v-64h64v-64h-64v-64h-64z" />
    <glyph glyph-name="comma" unicode="," 
d="M64 -64v64h64v-64h-64zM128 0v64h64v-64h-64z" />
    <glyph glyph-name="hyphen" unicode="-" 
d="M192 192h64v-64h-64h-64h-64h-64v64h64h64h64z" />
    <glyph glyph-name="period" unicode="." 
d="M128 64h64v-64h-64h-64v64h64z" />
    <glyph glyph-name="slash" unicode="/" 
d="M64 0v64v64v64h64v-64v-64v-64h-64zM128 192v64v64v64h64v-64v-64v-64h-64z" />
    <glyph glyph-name="zero" unicode="0" 
d="M128 64h64v-64h-64h-64v64h64zM192 64v64v64v64h64v-64v-64v-64h-64zM64 64h-64v64v64v64h64v-64v-64v-64zM192 256h-64h-64v64h64h64v-64z" />
    <glyph glyph-name="one" unicode="1" 
d="M0 192v64h64v-64h-64zM192 0h-64h-64h-64v64h64h64v64v64v64h-64v64h64h64v-64v-64v-64v-64h64v-64h-64z" />
    <glyph glyph-name="two" unicode="2" 
d="M192 64h64v-64h-64h-64h-64h-64v64v64h64v-64h64h64zM128 192h64v-64h-64h-64v64h64zM192 192v64h64v-64h-64zM192 256h-64h-64v64h64h64v-64z" />
    <glyph glyph-name="three" unicode="3" 
d="M192 0h-64h-64h-64v64h64h64h64v64h64v-64v-64h-64zM192 128h-64h-64v64h64h64v-64zM192 192v64h64v-64h-64zM192 256h-64h-64v64h64h64v-64z" />
    <glyph glyph-name="four" unicode="4" 
d="M128 0v64v64h-64h-64v64v64v64h64v-64v-64h64v64v64h64v-64v-64h64v-64h-64v-64v-64h-64z" />
    <glyph glyph-name="five" unicode="5" 
d="M192 0h-64h-64h-64v64h64h64h64v64h64v-64v-64h-64zM192 128h-64h-64h-64v64v64h64v-64h64h64v-64zM192 320h64v-64h-64h-64h-64v64h64h64z" />
    <glyph glyph-name="six" unicode="6" 
d="M192 0h-64h-64v64h64h64v64h64v-64v-64h-64zM64 64h-64v64v64v64h64v-64v-64v-64zM192 128h-64v64h64v-64zM128 320h64v-64h-64h-64v64h64z" />
    <glyph glyph-name="seven" unicode="7" 
d="M64 0v64v64h64v-64v-64h-64zM128 128v64h64v-64h-64zM192 192v64h-64h-64h-64v64h64h64h64h64v-64v-64h-64z" />
    <glyph glyph-name="eight" unicode="8" 
d="M128 64h64v-64h-64h-64v64h64zM192 64v64h64v-64h-64zM64 64h-64v64h64v-64zM192 128h-64h-64v64h64h64v-64zM192 192v64h64v-64h-64zM64 192h-64v64h64v-64zM192 256h-64h-64v64h64h64v-64z" />
    <glyph glyph-name="nine" unicode="9" 
d="M64 128v64h64v-64h-64zM128 64h64v-64h-64h-64v64h64zM192 64v64v64v64h64v-64v-64v-64h-64zM64 192h-64v64h64v-64zM192 256h-64h-64v64h64h64v-64z" />
    <glyph glyph-name="colon" unicode=":" 
d="M128 64h64v-64h-64h-64v64h64zM128 192h64v-64h-64h-64v64h64z" />
    <glyph glyph-name="semicolon" unicode=";" 
d="M64 -64v64h64v-64h-64zM128 0v64h64v-64h-64zM128 192h64v-64h-64h-64v64h64z" />
    <glyph glyph-name="less" unicode="&#x3c;" 
d="M128 64v64h64v-64h-64zM128 128h-64v64h64v-64zM128 192v64h64v-64h-64z" />
    <glyph glyph-name="equal" unicode="=" 
d="M192 128h64v-64h-64h-64h-64h-64v64h64h64h64zM192 256h64v-64h-64h-64h-64h-64v64h64h64h64z" />
    <glyph glyph-name="greater" unicode="&#x3e;" 
d="M64 64v64h64v-64h-64zM128 128v64h64v-64h-64zM128 192h-64v64h64v-64z" />
    <glyph glyph-name="question" unicode="?" 
d="M0 256v64h64v-64h-64zM128 64h64v-64h-64h-64v64h64zM128 128h-64v64h64v64h64v-64v-64h-64zM192 256v64h64v-64h-64zM192 320h-64h-64v64h64h64v-64z" />
    <glyph glyph-name="at" unicode="@" 
d="M192 0v64v64v64h-64h-64v-64h64v-64v-64h-64h-64v64v64v64v64h64h64h64h64v-64v-64v-64v-64h-64z" />
    <glyph glyph-name="A" unicode="A" 
d="M192 0v64v64h-64v64h64v64v64h64v-64v-64v-64v-64v-64h-64zM0 0v64v64v64v64v64h64v-64v-64v-64v-64v-64h-64zM192 320h-64h-64v64h64h64v-64z" />
    <glyph glyph-name="B" unicode="B" 
d="M192 0h-64h-64h-64v64v64v64v64v64h64v-64v-64h64v-64h-64v-64h64h64v64v64h64v-64v-64v-64h-64zM192 192h-64v64h64v-64zM192 256v64h64v-64h-64zM192 320h-64h-64v64h64h64v-64z" />
    <glyph glyph-name="C" unicode="C" 
d="M192 64h64v-64h-64h-64h-64v64h64h64zM64 64h-64v64v64v64v64h64v-64v-64v-64v-64zM192 384h64v-64h-64h-64h-64v64h64h64z" />
    <glyph glyph-name="D" unicode="D" 
d="M128 64h64v64v64v64v64h-64h-64v-64v-64v-64v-64h64zM128 0h-64h-64v64v64v64v64v64v64h64h64h64v-64h64v-64v-64v-64v-64h-64v-64h-64z" />
    <glyph glyph-name="E" unicode="E" 
d="M192 64h64v-64h-64h-64h-64v64h64h64zM64 64h-64v64v64v64v64h64v-64v-64v-64v-64zM192 256h64v-64h-64h-64v64h64zM192 384h64v-64h-64h-64h-64v64h64h64z" />
    <glyph glyph-name="F" unicode="F" 
d="M0 0v64v64v64v64v64h64v-64v-64v-64v-64v-64h-64zM192 256h64v-64h-64h-64v64h64zM192 384h64v-64h-64h-64h-64v64h64h64z" />
    <glyph glyph-name="G" unicode="G" 
d="M192 0h-64h-64v64h64h64v64v64h-64v64h64h64v-64v-64v-64v-64h-64zM64 64h-64v64v64v64v64h64v-64v-64v-64v-64zM192 384h64v-64h-64h-64h-64v64h64h64z" />
    <glyph glyph-name="H" unicode="H" 
d="M192 0v64v64v64h-64v-64h-64v-64v-64h-64v64v64v64v64v64v64h64v-64v-64v-64h64v64h64v64v64h64v-64v-64v-64v-64v-64v-64h-64z" />
    <glyph glyph-name="I" unicode="I" 
d="M128 0h-64h-64v64h64v64v64v64v64h-64v64h64h64h64v-64h-64v-64v-64v-64v-64h64v-64h-64zM192 64v64h64v-64h-64z" />
    <glyph glyph-name="J" unicode="J" 
d="M64 64h64v-64h-64h-64v64h64zM128 64v64v64v64v64h-64v64h64h64h64v-64h-64v-64v-64v-64v-64h-64z" />
    <glyph glyph-name="K" unicode="K" 
d="M192 0v64v64v64h64v-64v-64v-64h-64zM0 0v64v64v64v64v64v64h64v-64v-64v-64h64v-64h-64v-64v-64h-64zM192 192h-64v64h64v-64zM192 256v64v64h64v-64v-64h-64z" />
    <glyph glyph-name="L" unicode="L" 
d="M192 64h64v-64h-64h-64h-64v64h64h64zM64 64h-64v64v64v64v64v64h64v-64v-64v-64v-64v-64z" />
    <glyph glyph-name="M" unicode="M" 
d="M192 0v64v64v64v64v64h-64v-64h-64v-64v-64v-64v-64h-64v64v64v64v64v64v64h64v-64h64v64h64h64v-64v-64v-64v-64v-64v-64h-64z" />
    <glyph glyph-name="N" unicode="N" 
d="M192 0v64v64v64h-64v64h64v64v64h64v-64v-64v-64v-64v-64v-64h-64zM0 0v64v64v64v64v64v64h64v-64h64v-64h-64v-64v-64v-64v-64h-64z" />
    <glyph glyph-name="O" unicode="O" 
d="M128 64h64v-64h-64h-64v64h64zM192 64v64v64v64v64h64v-64v-64v-64v-64h-64zM64 64h-64v64v64v64v64h64v-64v-64v-64v-64zM192 320h-64h-64v64h64h64v-64z" />
    <glyph glyph-name="P" unicode="P" 
d="M0 0v64v64v64v64v64h64v-64v-64v-64v-64v-64h-64zM128 128v64h64v-64h-64zM192 192v64v64h64v-64v-64h-64zM192 320h-64h-64v64h64h64v-64z" />
    <glyph glyph-name="Q" unicode="Q" 
d="M192 0h-64h-64v64h64v64h64v-64h64v-64h-64zM64 64h-64v64v64v64v64h64v-64v-64v-64v-64zM192 128v64v64v64h64v-64v-64v-64h-64zM192 320h-64h-64v64h64h64v-64z" />
    <glyph glyph-name="R" unicode="R" 
d="M192 0v64v64v64h64v-64v-64v-64h-64zM0 0v64v64v64v64v64h64v-64v-64h64v-64h-64v-64v-64h-64zM192 192h-64v64h64v-64zM192 256v64h64v-64h-64zM192 320h-64h-64v64h64h64v-64z" />
    <glyph glyph-name="S" unicode="S" 
d="M128 64h64v-64h-64h-64h-64v64h64h64zM192 64v64v64h64v-64v-64h-64zM192 192h-64h-64v64h64h64v-64zM64 256h-64v64h64v-64zM128 384h64v-64h-64h-64v64h64z" />
    <glyph glyph-name="T" unicode="T" 
d="M128 0v64v64v64v64v64h-64v-64h-64v64h64v64h64h64h64v-64h-64v-64v-64v-64v-64v-64h-64z" />
    <glyph glyph-name="U" unicode="U" 
d="M128 64h64v-64h-64h-64v64h64zM192 64v64v64v64v64v64h64v-64v-64v-64v-64v-64h-64zM64 64h-64v64v64v64v64v64h64v-64v-64v-64v-64v-64z" />
    <glyph glyph-name="V" unicode="V" 
d="M64 0h-64v64v64v64v64v64v64h64v-64v-64v-64v-64v-64h64v-64h-64zM128 64v64h64v-64h-64zM192 128v64v64v64v64h64v-64v-64v-64v-64h-64z" />
    <glyph glyph-name="W" unicode="W" 
d="M128 0v64h64v-64h-64zM0 0v64v64v64v64v64v64h64v-64v-64v-64v-64h64v-64h-64v-64h-64zM192 64v64v64v64v64v64h64v-64v-64v-64v-64v-64h-64z" />
    <glyph glyph-name="X" unicode="X" 
d="M192 0v64v64v64h64v-64v-64v-64h-64zM0 0v64v64v64h64v-64v-64v-64h-64zM192 192h-64h-64v64h64h64v-64zM192 256v64v64h64v-64v-64h-64zM64 256h-64v64v64h64v-64v-64z" />
    <glyph glyph-name="Y" unicode="Y" 
d="M64 128v64h64v-64h-64zM128 64h64v-64h-64h-64v64h64zM192 64v64v64v64v64v64h64v-64v-64v-64v-64v-64h-64zM64 192h-64v64v64v64h64v-64v-64v-64z" />
    <glyph glyph-name="Z" unicode="Z" 
d="M192 64h64v-64h-64h-64h-64h-64v64v64v64h64v-64v-64h64h64zM128 256h64v-64h-64h-64v64h64zM192 256v64h-64h-64h-64v64h64h64h64h64v-64v-64h-64z" />
    <glyph glyph-name="bracketleft" unicode="[" 
d="M128 -64h-64v64v64v64v64v64v64v64v64h64h64v-64h-64v-64v-64v-64v-64v-64v-64h64v-64h-64z" />
    <glyph glyph-name="backslash" unicode="\" 
d="M128 0v64v64v64h64v-64v-64v-64h-64zM128 192h-64v64v64v64h64v-64v-64v-64z" />
    <glyph glyph-name="bracketright" unicode="]" 
d="M128 -64h-64v64h64v64v64v64v64v64v64h-64v64h64h64v-64v-64v-64v-64v-64v-64v-64v-64h-64z" />
    <glyph glyph-name="asciicircum" unicode="^" 
d="M192 384v64h64v-64h-64zM0 384v64h64v-64h-64zM192 448h-64h-64v64h64h64v-64z" />
    <glyph glyph-name="underscore" unicode="_" 
d="M192 0h64v-64h-64h-64h-64h-64v64h64h64h64z" />
    <glyph glyph-name="grave" unicode="`" 
d="M128 256v64h-64v64h64h64v-64v-64h-64z" />
    <glyph glyph-name="a" unicode="a" 
d="M192 0h-64h-64v64h64h64v64v64h64v-64v-64v-64h-64zM64 64h-64v64h64v-64zM192 192h-64h-64v64h64h64v-64z" />
    <glyph glyph-name="b" unicode="b" 
d="M128 64h64v-64h-64h-64h-64v64v64v64v64v64v64h64v-64v-64v-64v-64v-64h64zM192 64v64v64h64v-64v-64h-64zM192 192h-64v64h64v-64z" />
    <glyph glyph-name="c" unicode="c" 
d="M192 64h64v-64h-64h-64h-64v64h64h64zM64 64h-64v64v64h64v-64v-64zM192 256h64v-64h-64h-64h-64v64h64h64z" />
    <glyph glyph-name="d" unicode="d" 
d="M192 0v64v64v64h-64h-64v-64v-64h64v-64h-64v64h-64v64v64h64v64h64h64v64v64h64v-64v-64v-64v-64v-64v-64h-64z" />
    <glyph glyph-name="e" unicode="e" 
d="M192 0h-64h-64v64h64v64h64v-64h64v-64h-64zM64 64h-64v64v64h64v-64v-64zM192 128v64h64v-64h-64zM192 192h-64h-64v64h64h64v-64z" />
    <glyph glyph-name="f" unicode="f" 
d="M0 -64v64h64v-64h-64zM64 0v64v64h-64v64h64v64h64v-64h64h64v-64h-64h-64v-64v-64h-64zM192 320h64v-64h-64h-64v64h64z" />
    <glyph glyph-name="g" unicode="g" 
d="M64 0v64h64v-64h-64zM128 -64h64v-64h-64h-64v64h64zM192 -64v64v64v64v64h64v-64v-64v-64v-64h-64zM64 64h-64v64v64h64v-64v-64zM192 192h-64h-64v64h64h64v-64z" />
    <glyph glyph-name="h" unicode="h" 
d="M192 0v64v64v64h64v-64v-64v-64h-64zM0 0v64v64v64v64v64h64v-64v-64h64v-64h-64v-64v-64h-64zM192 192h-64v64h64v-64z" />
    <glyph glyph-name="i" unicode="i" 
d="M64 320v64h64v-64h-64zM128 0h-64v64v64v64h-64v64h64h64v-64v-64v-64h64v-64h-64zM192 64v64h64v-64h-64z" />
    <glyph glyph-name="j" unicode="j" 
d="M64 0h64v-64h-64h-64v64h64zM128 0v64v64v64h-64v64h64h64h64v-64h-64v-64v-64v-64h-64z" />
    <glyph glyph-name="k" unicode="k" 
d="M192 0v64v64h64v-64v-64h-64zM0 0v64v64v64v64v64h64v-64v-64v-64h64v-64h-64v-64h-64zM192 128h-64v64h64v-64zM192 192v64h64v-64h-64z" />
    <glyph glyph-name="l" unicode="l" 
d="M192 64h64v-64h-64h-64h-64v64h64h64zM64 64h-64v64v64v64v64h64v-64v-64v-64v-64z" />
    <glyph glyph-name="m" unicode="m" 
d="M192 0v64v64v64h-64v-64h-64v-64v-64h-64v64v64v64v64h64v-64h64v64h64h64v-64v-64v-64v-64h-64z" />
    <glyph glyph-name="n" unicode="n" 
d="M192 0v64v64v64h64v-64v-64v-64h-64zM0 0v64v64v64v64h64v-64h64v-64h-64v-64v-64h-64zM192 192h-64v64h64v-64z" />
    <glyph glyph-name="o" unicode="o" 
d="M128 64h64v-64h-64h-64v64h64zM192 64v64v64h64v-64v-64h-64zM64 64h-64v64v64h64v-64v-64zM192 192h-64h-64v64h64h64v-64z" />
    <glyph glyph-name="p" unicode="p" 
d="M0 -64v64v64v64v64h64v-64v-64v-64v-64h-64zM128 0v64h64v-64h-64zM192 64v64v64h64v-64v-64h-64zM192 192h-64h-64v64h64h64v-64z" />
    <glyph glyph-name="q" unicode="q" 
d="M192 -64v64v64v64v64h64v-64v-64v-64v-64h-64zM64 0v64h64v-64h-64zM64 64h-64v64v64h64v-64v-64zM192 192h-64h-64v64h64h64v-64z" />
    <glyph glyph-name="r" unicode="r" 
d="M0 -64v64h64v-64h-64zM64 0v64v64v64v64h64v-64h64v-64h-64v-64v-64h-64zM192 192v64h64v-64h-64z" />
    <glyph glyph-name="s" unicode="s" 
d="M128 0h-64h-64v64h64h64v64h64h64v-64h-64v-64h-64zM128 128h-64h-64v64h64v64h64h64h64v-64h-64h-64v-64z" />
    <glyph glyph-name="t" unicode="t" 
d="M192 64h64v-64h-64h-64v64h64zM128 64h-64v64v64h-64v64h64v64h64v-64h64h64v-64h-64h-64v-64v-64z" />
    <glyph glyph-name="u" unicode="u" 
d="M128 64h64v-64h-64h-64v64h64zM192 64v64v64v64h64v-64v-64v-64h-64zM64 64h-64v64v64v64h64v-64v-64v-64z" />
    <glyph glyph-name="v" unicode="v" 
d="M64 0h-64v64v64v64v64h64v-64v-64v-64h64v-64h-64zM128 64v64h64v-64h-64zM192 128v64v64h64v-64v-64h-64z" />
    <glyph glyph-name="w" unicode="w" 
d="M128 0v64h64v-64h-64zM0 0v64v64v64v64h64v-64v-64h64v-64h-64v-64h-64zM192 64v64v64v64h64v-64v-64v-64h-64z" />
    <glyph glyph-name="x" unicode="x" 
d="M192 0v64h64v-64h-64zM0 0v64v64h64v-64v-64h-64zM192 64h-64v64h-64v64h64h64v-64v-64zM192 192v64h64v-64h-64zM64 192h-64v64h64v-64z" />
    <glyph glyph-name="y" unicode="y" 
d="M64 64v64h64v-64h-64zM128 0h64v-64h-64h-64v64h64zM192 0v64v64v64v64h64v-64v-64v-64v-64h-64zM64 128h-64v64v64h64v-64v-64z" />
    <glyph glyph-name="z" unicode="z" 
d="M192 64h64v-64h-64h-64h-64h-64v64h64v64h64v-64h64zM128 128v64h-64h-64v64h64h64h64h64v-64h-64v-64h-64z" />
    <glyph glyph-name="braceleft" unicode="{" 
d="M128 -64v64h64v-64h-64zM128 0h-64v64v64v64h64v-64v-64v-64zM128 192v64h64v-64h-64zM128 256h-64v64v64h64v-64v-64zM128 384v64h64v-64h-64z" />
    <glyph glyph-name="bar" unicode="|" 
d="M128 0h-64v64v64v64h64h64v-64v-64v-64h-64zM128 256h-64v64v64v64h64h64v-64v-64v-64h-64z" />
    <glyph glyph-name="braceright" unicode="}" 
d="M64 -64v64h64v-64h-64zM128 0v64v64v64h64v-64v-64v-64h-64zM128 192h-64v64h64v-64zM128 256v64v64h64v-64v-64h-64zM128 384h-64v64h64v-64z" />
    <glyph glyph-name="asciitilde" unicode="~" 
d="M128 64v64h-64h-64v64h64v64h64v-64h64h64v-64h-64v-64h-64z" />
    <glyph glyph-name="uni00A0" unicode="&#xa0;" 
 />
    <glyph glyph-name="exclamdown" unicode="&#xa1;" 
d="M64 -64v64v64v64v64h64h64v-64v-64h-64v-64v-64h-64zM128 320h64v-64h-64h-64v64h64z" />
    <glyph glyph-name="cent" unicode="&#xa2;" 
d="M128 -64v64h-64v64h64h64h64v-64h-64v-64h-64zM64 64h-64v64v64v64v64h64v-64v-64v-64v-64zM192 320h-64h-64v64h64v64h64v-64h64v-64h-64z" />
    <glyph glyph-name="sterling" unicode="&#xa3;" 
d="M192 320v64h64v-64h-64zM192 64h64v-64h-64h-64h-64h-64v64h64v64v64h-64v64h64v64v64h64v-64v-64h64v-64h-64v-64v-64h64zM192 384h-64v64h64v-64z" />
    <glyph glyph-name="copyright" unicode="&#xa9;" 
d="M128 0h64v-64h-64h-64h-64v64h64h64zM192 0v64v64v64v64v64h64v-64v-64v-64v-64v-64h-64zM64 64h-64v64v64v64h64h64v-64h-64v-64h64v-64h-64zM192 320h-64h-64h-64v64h64h64h64v-64z" />
    <glyph glyph-name="registered" unicode="&#xae;" 
d="M0 64v64v64v64h64h64v-64v-64h64v64v64v64h64v-64v-64v-64v-64v-64h-64v-64h-64h-64h-64v64h64h64h64v64h-64v64h-64v-64h-64zM192 320h-64h-64h-64v64h64h64h64v-64z" />
    <glyph glyph-name="degree" unicode="&#xb0;" 
d="M128 320h-64v64v64h64h64v-64v-64h-64z" />
    <glyph glyph-name="questiondown" unicode="&#xbf;" 
d="M128 0h64v-64h-64h-64v64h64zM192 0v64h64v-64h-64zM64 0h-64v64h64v-64zM64 64v64v64h64h64v-64h-64v-64h-64zM128 320h64v-64h-64h-64v64h64z" />
    <glyph glyph-name="Agrave" unicode="&#xc0;" 
d="M192 0v64v64h-64v64h64v64v64h64v-64v-64v-64v-64v-64h-64zM0 0v64v64v64v64v64h64v-64v-64v-64v-64v-64h-64zM128 448v64h64v-64h-64zM192 320h-64h-64v64h64h64v-64zM128 512h-64v64h64v-64z" />
    <glyph glyph-name="Aacute" unicode="&#xc1;" 
d="M192 0v64v64h-64v64h64v64v64h64v-64v-64v-64v-64v-64h-64zM0 0v64v64v64v64v64h64v-64v-64v-64v-64v-64h-64zM64 448v64h64v-64h-64zM192 320h-64h-64v64h64h64v-64zM128 512v64h64v-64h-64z" />
    <glyph glyph-name="Acircumflex" unicode="&#xc2;" 
d="M192 0v64v64h-64v64h64v64v64h64v-64v-64v-64v-64v-64h-64zM0 0v64v64v64v64v64h64v-64v-64v-64v-64v-64h-64zM192 448v64h64v-64h-64zM0 448v64h64v-64h-64zM192 320h-64h-64v64h64h64v-64zM192 512h-64h-64v64h64h64v-64z" />
    <glyph glyph-name="Atilde" unicode="&#xc3;" 
d="M192 0v64v64h-64v64h64v64v64h64v-64v-64v-64v-64v-64h-64zM0 0v64v64v64v64v64h64v-64v-64v-64v-64v-64h-64zM128 448v64h64v-64h-64zM0 448v64h64v-64h-64zM192 320h-64h-64v64h64h64v-64zM192 512v64h64v-64h-64zM128 512h-64v64h64v-64z" />
    <glyph glyph-name="Adieresis" unicode="&#xc4;" 
d="M192 0v64v64h-64v64h64v64v64h64v-64v-64v-64v-64v-64h-64zM0 0v64v64v64v64v64h64v-64v-64v-64v-64v-64h-64zM192 448v64h64v-64h-64zM0 448v64h64v-64h-64zM192 320h-64h-64v64h64h64v-64z" />
    <glyph glyph-name="Aring" unicode="&#xc5;" 
d="M192 0v64v64h-64v64h64v64v64h64v-64v-64v-64v-64v-64h-64zM0 0v64v64v64v64v64h64v-64v-64v-64v-64v-64h-64zM192 320h-64h-64v64h64h64v-64zM192 384v64h64v-64h-64zM64 384h-64v64h64v-64zM192 448h-64h-64v64h64h64v-64z" />
    <glyph glyph-name="AE" unicode="&#xc6;" 
d="M0 0v64v64v64v64v64h64v64h64h64h64v-64h-64v-64h64v-64h-64v-64v-64h64v-64h-64h-64v64v64h-64v-64v-64h-64zM128 192v64v64h-64v-64v-64h64z" />
    <glyph glyph-name="Ccedilla" unicode="&#xc7;" 
d="M128 -128h-64v64h64v64h-64v64h64h64h64v-64h-64v-64v-64h-64zM64 64h-64v64v64v64v64h64v-64v-64v-64v-64zM192 384h64v-64h-64h-64h-64v64h64h64z" />
    <glyph glyph-name="Egrave" unicode="&#xc8;" 
d="M128 448v64h64v-64h-64zM192 64h64v-64h-64h-64h-64v64h64h64zM64 64h-64v64v64v64v64h64v-64v-64v-64v-64zM192 256h64v-64h-64h-64v64h64zM192 384h64v-64h-64h-64h-64v64h64h64zM128 512h-64v64h64v-64z" />
    <glyph glyph-name="Eacute" unicode="&#xc9;" 
d="M128 448v64h64v-64h-64zM192 64h64v-64h-64h-64h-64v64h64h64zM64 64h-64v64v64v64v64h64v-64v-64v-64v-64zM192 256h64v-64h-64h-64v64h64zM192 384h64v-64h-64h-64h-64v64h64h64zM192 512v64h64v-64h-64z" />
    <glyph glyph-name="Ecircumflex" unicode="&#xca;" 
d="M192 448v64h64v-64h-64zM64 448v64h64v-64h-64zM192 64h64v-64h-64h-64h-64v64h64h64zM64 64h-64v64v64v64v64h64v-64v-64v-64v-64zM192 256h64v-64h-64h-64v64h64zM192 384h64v-64h-64h-64h-64v64h64h64zM192 512h-64v64h64v-64z" />
    <glyph glyph-name="Edieresis" unicode="&#xcb;" 
d="M192 448v64h64v-64h-64zM64 448v64h64v-64h-64zM192 64h64v-64h-64h-64h-64v64h64h64zM64 64h-64v64v64v64v64h64v-64v-64v-64v-64zM192 256h64v-64h-64h-64v64h64zM192 384h64v-64h-64h-64h-64v64h64h64z" />
    <glyph glyph-name="Igrave" unicode="&#xcc;" 
d="M64 448v64h64v-64h-64zM128 0h-64h-64v64h64v64v64v64v64h-64v64h64h64h64v-64h-64v-64v-64v-64v-64h64v-64h-64zM192 64v64h64v-64h-64zM64 512h-64v64h64v-64z" />
    <glyph glyph-name="Iacute" unicode="&#xcd;" 
d="M64 448v64h64v-64h-64zM128 0h-64h-64v64h64v64v64v64v64h-64v64h64h64h64v-64h-64v-64v-64v-64v-64h64v-64h-64zM192 64v64h64v-64h-64zM128 512v64h64v-64h-64z" />
    <glyph glyph-name="Icircumflex" unicode="&#xce;" 
d="M128 448v64h64v-64h-64zM0 448v64h64v-64h-64zM128 0h-64h-64v64h64v64v64v64v64h-64v64h64h64h64v-64h-64v-64v-64v-64v-64h64v-64h-64zM192 64v64h64v-64h-64zM128 512h-64v64h64v-64z" />
    <glyph glyph-name="Idieresis" unicode="&#xcf;" 
d="M128 448v64h64v-64h-64zM0 448v64h64v-64h-64zM128 0h-64h-64v64h64v64v64v64v64h-64v64h64h64h64v-64h-64v-64v-64v-64v-64h64v-64h-64zM192 64v64h64v-64h-64z" />
    <glyph glyph-name="Eth" unicode="&#xd0;" 
d="M128 0h-64v64v64v64h-64v64h64v64v64h64h64v-64h-64v-64v-64h64v64v64h64v-64v-64v-64v-64h-64v64h-64v-64h64v-64h-64z" />
    <glyph glyph-name="Ntilde" unicode="&#xd1;" 
d="M192 0v64v64v64h-64v64h64v64v64h64v-64v-64v-64v-64v-64v-64h-64zM0 0v64v64v64v64v64v64h64v-64h64v-64h-64v-64v-64v-64v-64h-64zM128 448v64h64v-64h-64zM0 448v64h64v-64h-64zM192 512v64h64v-64h-64zM128 512h-64v64h64v-64z" />
    <glyph glyph-name="Ograve" unicode="&#xd2;" 
d="M128 448v64h64v-64h-64zM128 64h64v-64h-64h-64v64h64zM192 64v64v64v64v64h64v-64v-64v-64v-64h-64zM64 64h-64v64v64v64v64h64v-64v-64v-64v-64zM192 320h-64h-64v64h64h64v-64zM128 512h-64v64h64v-64z" />
    <glyph glyph-name="Oacute" unicode="&#xd3;" 
d="M64 448v64h64v-64h-64zM128 64h64v-64h-64h-64v64h64zM192 64v64v64v64v64h64v-64v-64v-64v-64h-64zM64 64h-64v64v64v64v64h64v-64v-64v-64v-64zM192 320h-64h-64v64h64h64v-64zM128 512v64h64v-64h-64z" />
    <glyph glyph-name="Ocircumflex" unicode="&#xd4;" 
d="M192 448v64h64v-64h-64zM0 448v64h64v-64h-64zM128 64h64v-64h-64h-64v64h64zM192 64v64v64v64v64h64v-64v-64v-64v-64h-64zM64 64h-64v64v64v64v64h64v-64v-64v-64v-64zM192 320h-64h-64v64h64h64v-64zM192 512h-64h-64v64h64h64v-64z" />
    <glyph glyph-name="Otilde" unicode="&#xd5;" 
d="M128 448v64h64v-64h-64zM0 448v64h64v-64h-64zM128 64h64v-64h-64h-64v64h64zM192 64v64v64v64v64h64v-64v-64v-64v-64h-64zM64 64h-64v64v64v64v64h64v-64v-64v-64v-64zM192 320h-64h-64v64h64h64v-64zM192 512v64h64v-64h-64zM128 512h-64v64h64v-64z" />
    <glyph glyph-name="Odieresis" unicode="&#xd6;" 
d="M192 448v64h64v-64h-64zM0 448v64h64v-64h-64zM128 64h64v-64h-64h-64v64h64zM192 64v64v64v64v64h64v-64v-64v-64v-64h-64zM64 64h-64v64v64v64v64h64v-64v-64v-64v-64zM192 320h-64h-64v64h64h64v-64z" />
    <glyph glyph-name="Oslash" unicode="&#xd8;" 
d="M128 64h64v-64h-64h-64v64h64zM192 64v64v64h-64v-64h-64v-64h-64v64v64v64v64h64v-64v-64h64v64h64v64h64v-64v-64v-64v-64h-64zM192 320h-64h-64v64h64h64v-64z" />
    <glyph glyph-name="Ugrave" unicode="&#xd9;" 
d="M128 448v64h64v-64h-64zM128 64h64v-64h-64h-64v64h64zM192 64v64v64v64v64v64h64v-64v-64v-64v-64v-64h-64zM64 64h-64v64v64v64v64v64h64v-64v-64v-64v-64v-64zM128 512h-64v64h64v-64z" />
    <glyph glyph-name="Uacute" unicode="&#xda;" 
d="M64 448v64h64v-64h-64zM128 64h64v-64h-64h-64v64h64zM192 64v64v64v64v64v64h64v-64v-64v-64v-64v-64h-64zM64 64h-64v64v64v64v64v64h64v-64v-64v-64v-64v-64zM128 512v64h64v-64h-64z" />
    <glyph glyph-name="Ucircumflex" unicode="&#xdb;" 
d="M192 448v64h64v-64h-64zM0 448v64h64v-64h-64zM128 64h64v-64h-64h-64v64h64zM192 64v64v64v64v64v64h64v-64v-64v-64v-64v-64h-64zM64 64h-64v64v64v64v64v64h64v-64v-64v-64v-64v-64zM192 512h-64h-64v64h64h64v-64z" />
    <glyph glyph-name="Udieresis" unicode="&#xdc;" 
d="M192 448v64h64v-64h-64zM0 448v64h64v-64h-64zM128 64h64v-64h-64h-64v64h64zM192 64v64v64v64v64v64h64v-64v-64v-64v-64v-64h-64zM64 64h-64v64v64v64v64v64h64v-64v-64v-64v-64v-64z" />
    <glyph glyph-name="Yacute" unicode="&#xdd;" 
d="M64 128v64h64v-64h-64zM64 448v64h64v-64h-64zM128 64h64v-64h-64h-64v64h64zM192 64v64v64v64v64v64h64v-64v-64v-64v-64v-64h-64zM64 192h-64v64v64v64h64v-64v-64v-64zM128 512v64h64v-64h-64z" />
    <glyph glyph-name="Thorn" unicode="&#xde;" 
d="M0 0v64v64v64v64v64v64h64v-64h64h64v-64h64v-64v-64h-64v64v64h-64h-64v-64v-64h64h64v-64h-64h-64v-64h-64z" />
    <glyph glyph-name="germandbls" unicode="&#xdf;" 
d="M0 0v64v64v64v64v64h64v-64v-64v-64v-64v-64h-64zM192 0h-64v64h64v64v64h64v-64v-64v-64h-64zM192 192h-64v64h64v-64zM192 256v64h64v-64h-64zM192 320h-64h-64v64h64h64v-64z" />
    <glyph glyph-name="agrave" unicode="&#xe0;" 
d="M128 320v64h64v-64h-64zM192 0h-64h-64v64h64h64v64v64h64v-64v-64v-64h-64zM64 64h-64v64h64v-64zM192 192h-64h-64v64h64h64v-64zM128 384h-64v64h64v-64z" />
    <glyph glyph-name="aacute" unicode="&#xe1;" 
d="M64 320v64h64v-64h-64zM192 0h-64h-64v64h64h64v64v64h64v-64v-64v-64h-64zM64 64h-64v64h64v-64zM192 192h-64h-64v64h64h64v-64zM128 384v64h64v-64h-64z" />
    <glyph glyph-name="acircumflex" unicode="&#xe2;" 
d="M192 320v64h64v-64h-64zM64 320v64h64v-64h-64zM192 0h-64h-64v64h64h64v64v64h64v-64v-64v-64h-64zM64 64h-64v64h64v-64zM192 192h-64h-64v64h64h64v-64zM192 384h-64v64h64v-64z" />
    <glyph glyph-name="atilde" unicode="&#xe3;" 
d="M128 320v64h64v-64h-64zM0 320v64h64v-64h-64zM192 0h-64h-64v64h64h64v64v64h64v-64v-64v-64h-64zM64 64h-64v64h64v-64zM192 192h-64h-64v64h64h64v-64zM192 384v64h64v-64h-64zM128 384h-64v64h64v-64z" />
    <glyph glyph-name="adieresis" unicode="&#xe4;" 
d="M192 320v64h64v-64h-64zM64 320v64h64v-64h-64zM192 0h-64h-64v64h64h64v64v64h64v-64v-64v-64h-64zM64 64h-64v64h64v-64zM192 192h-64h-64v64h64h64v-64z" />
    <glyph glyph-name="aring" unicode="&#xe5;" 
d="M64 320v64h64v-64h-64zM192 0h-64h-64v64h64h64v64v64h64v-64v-64v-64h-64zM64 64h-64v64h64v-64zM192 192h-64h-64v64h64h64v-64zM128 384v64h64v-64h-64zM64 384h-64v64h64v-64zM128 448h-64v64h64v-64z" />
    <glyph glyph-name="ae" unicode="&#xe6;" 
d="M192 0h-64h-64h-64v64v64h64v64h64v-64h64v-64h64v-64h-64zM192 128v64h64v-64h-64zM192 192h-64v64h64v-64zM64 192h-64v64h64v-64z" />
    <glyph glyph-name="ccedilla" unicode="&#xe7;" 
d="M128 -128h-64v64h64v64h-64v64h64h64h64v-64h-64v-64v-64h-64zM64 64h-64v64v64h64v-64v-64zM192 256h64v-64h-64h-64h-64v64h64h64z" />
    <glyph glyph-name="egrave" unicode="&#xe8;" 
d="M128 320v64h64v-64h-64zM192 0h-64h-64v64h64v64h64v-64h64v-64h-64zM64 64h-64v64v64h64v-64v-64zM192 128v64h64v-64h-64zM192 192h-64h-64v64h64h64v-64zM128 384h-64v64h64v-64z" />
    <glyph glyph-name="eacute" unicode="&#xe9;" 
d="M64 320v64h64v-64h-64zM192 0h-64h-64v64h64v64h64v-64h64v-64h-64zM64 64h-64v64v64h64v-64v-64zM192 128v64h64v-64h-64zM192 192h-64h-64v64h64h64v-64zM128 384v64h64v-64h-64z" />
    <glyph glyph-name="ecircumflex" unicode="&#xea;" 
d="M192 320v64h64v-64h-64zM64 320v64h64v-64h-64zM192 0h-64h-64v64h64v64h64v-64h64v-64h-64zM64 64h-64v64v64h64v-64v-64zM192 128v64h64v-64h-64zM192 192h-64h-64v64h64h64v-64zM192 384h-64v64h64v-64z" />
    <glyph glyph-name="edieresis" unicode="&#xeb;" 
d="M192 320v64h64v-64h-64zM64 320v64h64v-64h-64zM192 0h-64h-64v64h64v64h64v-64h64v-64h-64zM64 64h-64v64v64h64v-64v-64zM192 128v64h64v-64h-64zM192 192h-64h-64v64h64h64v-64z" />
    <glyph glyph-name="igrave" unicode="&#xec;" 
d="M64 320v64h64v-64h-64zM128 0h-64v64v64v64h-64v64h64h64v-64v-64v-64h64v-64h-64zM192 64v64h64v-64h-64zM64 384h-64v64h64v-64z" />
    <glyph glyph-name="iacute" unicode="&#xed;" 
d="M0 320v64h64v-64h-64zM128 0h-64v64v64v64h-64v64h64h64v-64v-64v-64h64v-64h-64zM192 64v64h64v-64h-64zM64 384v64h64v-64h-64z" />
    <glyph glyph-name="icircumflex" unicode="&#xee;" 
d="M128 320v64h64v-64h-64zM0 320v64h64v-64h-64zM128 0h-64v64v64v64h-64v64h64h64v-64v-64v-64h64v-64h-64zM192 64v64h64v-64h-64zM128 384h-64v64h64v-64z" />
    <glyph glyph-name="idieresis" unicode="&#xef;" 
d="M128 320v64h64v-64h-64zM0 320v64h64v-64h-64zM128 0h-64v64v64v64h-64v64h64h64v-64v-64v-64h64v-64h-64zM192 64v64h64v-64h-64z" />
    <glyph glyph-name="eth" unicode="&#xf0;" 
d="M192 0v64v64h-64h-64v-64h64v-64h-64v64h-64v64h64v64h64h64v64h64v-64v-64v-64v-64h-64zM0 256v64h64v-64h-64zM192 256h-64v64h-64v64h64h64h64v-64h-64v-64z" />
    <glyph glyph-name="ntilde" unicode="&#xf1;" 
d="M192 0v64v64v64h64v-64v-64v-64h-64zM0 0v64v64v64v64h64v-64h64v-64h-64v-64v-64h-64zM128 320v64h64v-64h-64zM0 320v64h64v-64h-64zM192 192h-64v64h64v-64zM192 384v64h64v-64h-64zM128 384h-64v64h64v-64z" />
    <glyph glyph-name="ograve" unicode="&#xf2;" 
d="M128 320v64h64v-64h-64zM128 64h64v-64h-64h-64v64h64zM192 64v64v64h64v-64v-64h-64zM64 64h-64v64v64h64v-64v-64zM192 192h-64h-64v64h64h64v-64zM128 384h-64v64h64v-64z" />
    <glyph glyph-name="oacute" unicode="&#xf3;" 
d="M64 320v64h64v-64h-64zM128 64h64v-64h-64h-64v64h64zM192 64v64v64h64v-64v-64h-64zM64 64h-64v64v64h64v-64v-64zM192 192h-64h-64v64h64h64v-64zM128 384v64h64v-64h-64z" />
    <glyph glyph-name="ocircumflex" unicode="&#xf4;" 
d="M192 320v64h64v-64h-64zM0 320v64h64v-64h-64zM128 64h64v-64h-64h-64v64h64zM192 64v64v64h64v-64v-64h-64zM64 64h-64v64v64h64v-64v-64zM192 192h-64h-64v64h64h64v-64zM192 384h-64h-64v64h64h64v-64z" />
    <glyph glyph-name="otilde" unicode="&#xf5;" 
d="M128 320v64h64v-64h-64zM0 320v64h64v-64h-64zM128 64h64v-64h-64h-64v64h64zM192 64v64v64h64v-64v-64h-64zM64 64h-64v64v64h64v-64v-64zM192 192h-64h-64v64h64h64v-64zM192 384v64h64v-64h-64zM128 384h-64v64h64v-64z" />
    <glyph glyph-name="odieresis" unicode="&#xf6;" 
d="M192 320v64h64v-64h-64zM0 320v64h64v-64h-64zM128 64h64v-64h-64h-64v64h64zM192 64v64v64h64v-64v-64h-64zM64 64h-64v64v64h64v-64v-64zM192 192h-64h-64v64h64h64v-64z" />
    <glyph glyph-name="oslash" unicode="&#xf8;" 
d="M128 0h-64v64h-64v64v64h64v-64h64v-64h64v-64h-64zM192 64v64h-64v64h-64v64h64h64v-64h64v-64v-64h-64z" />
    <glyph glyph-name="ugrave" unicode="&#xf9;" 
d="M128 320v64h64v-64h-64zM128 64h64v-64h-64h-64v64h64zM192 64v64v64v64h64v-64v-64v-64h-64zM64 64h-64v64v64v64h64v-64v-64v-64zM128 384h-64v64h64v-64z" />
    <glyph glyph-name="uacute" unicode="&#xfa;" 
d="M64 320v64h64v-64h-64zM128 64h64v-64h-64h-64v64h64zM192 64v64v64v64h64v-64v-64v-64h-64zM64 64h-64v64v64v64h64v-64v-64v-64zM128 384v64h64v-64h-64z" />
    <glyph glyph-name="ucircumflex" unicode="&#xfb;" 
d="M192 320v64h64v-64h-64zM0 320v64h64v-64h-64zM128 64h64v-64h-64h-64v64h64zM192 64v64v64v64h64v-64v-64v-64h-64zM64 64h-64v64v64v64h64v-64v-64v-64zM192 384h-64h-64v64h64h64v-64z" />
    <glyph glyph-name="udieresis" unicode="&#xfc;" 
d="M192 320v64h64v-64h-64zM0 320v64h64v-64h-64zM128 64h64v-64h-64h-64v64h64zM192 64v64v64v64h64v-64v-64v-64h-64zM64 64h-64v64v64v64h64v-64v-64v-64z" />
    <glyph glyph-name="yacute" unicode="&#xfd;" 
d="M64 64v64h64v-64h-64zM64 320v64h64v-64h-64zM128 0h64v-64h-64h-64v64h64zM192 0v64v64v64v64h64v-64v-64v-64v-64h-64zM64 128h-64v64v64h64v-64v-64zM128 384v64h64v-64h-64z" />
    <glyph glyph-name="thorn" unicode="&#xfe;" 
d="M0 -128v64v64v64v64v64v64v64v64h64v-64v-64h64h64v-64h64v-64v-64h-64v64v64h-64h-64v-64v-64h64h64v-64h-64h-64v-64v-64h-64z" />
    <glyph glyph-name="ydieresis" unicode="&#xff;" 
d="M64 64v64h64v-64h-64zM192 320v64h64v-64h-64zM0 320v64h64v-64h-64zM128 0h64v-64h-64h-64v64h64zM192 0v64v64v64v64h64v-64v-64v-64v-64h-64zM64 128h-64v64v64h64v-64v-64z" />
    <glyph glyph-name="OE" unicode="&#x152;" 
d="M192 0h-64h-64v64h-64v64v64v64v64h64v64h64h64h64v-64h-64v-64h64v-64h-64v-64v-64h64v-64h-64zM128 64v64v64v64v64h-64v-64v-64v-64v-64h64z" />
    <glyph glyph-name="oe" unicode="&#x153;" 
d="M192 0h-64h-64v64h64v64h64v-64h64v-64h-64zM64 64h-64v64v64h64v64h64h64v-64h64v-64h-64v64h-64v-64h-64v-64z" />
    <glyph glyph-name="Ydieresis" unicode="&#x178;" 
d="M64 64v64h64v-64h-64zM192 320v64h64v-64h-64zM0 320v64h64v-64h-64zM128 0h64v-64h-64h-64v64h64zM192 0v64v64v64v64h64v-64v-64v-64v-64h-64zM64 128h-64v64v64h64v-64v-64z" />
    <glyph glyph-name="uni2000" unicode="&#x2000;" 
 />
    <glyph glyph-name="uni2001" unicode="&#x2001;" 
 />
    <glyph glyph-name="uni2002" unicode="&#x2002;" 
 />
    <glyph glyph-name="uni2003" unicode="&#x2003;" 
 />
    <glyph glyph-name="uni2004" unicode="&#x2004;" 
 />
    <glyph glyph-name="uni2005" unicode="&#x2005;" 
 />
    <glyph glyph-name="uni2006" unicode="&#x2006;" 
 />
    <glyph glyph-name="uni2007" unicode="&#x2007;" 
 />
    <glyph glyph-name="uni2008" unicode="&#x2008;" 
 />
    <glyph glyph-name="uni2009" unicode="&#x2009;" 
 />
    <glyph glyph-name="uni200A" unicode="&#x200a;" 
 />
    <glyph glyph-name="Euro" unicode="&#x20ac;" 
d="M192 64h64v-64h-64h-64v64h64zM128 64h-64v64h-64v64h64v64h-64v64h64v64h64v-64h64h64v-64h-64h-64v-64h64h64v-64h-64h-64v-64zM192 448h64v-64h-64h-64v64h64z" />
    <glyph glyph-name="uni3000" unicode="&#x3000;" 
 />
  </font>
</defs>
</svg>
